<mxfile host="Electron" agent="Mozilla/5.0 (Windows NT 10.0; Win64; x64) AppleWebKit/537.36 (KHTML, like Gecko) draw.io/24.7.8 Chrome/128.0.6613.36 Electron/32.0.1 Safari/537.36" version="24.7.8">
  <diagram name="PÃ¡gina-1" id="KZeyLKjCPIlRuRbu0SXI">
    <mxGraphModel dx="1035" dy="626" grid="1" gridSize="10" guides="1" tooltips="1" connect="1" arrows="1" fold="1" page="1" pageScale="1" pageWidth="827" pageHeight="1169" math="0" shadow="0">
      <root>
        <mxCell id="0" />
        <mxCell id="1" parent="0" />
        <mxCell id="TM1e376ledJ-Aqbjqv-U-5" style="edgeStyle=orthogonalEdgeStyle;rounded=0;orthogonalLoop=1;jettySize=auto;html=1;entryX=0.5;entryY=0;entryDx=0;entryDy=0;" edge="1" parent="1" source="TM1e376ledJ-Aqbjqv-U-1" target="TM1e376ledJ-Aqbjqv-U-2">
          <mxGeometry relative="1" as="geometry" />
        </mxCell>
        <mxCell id="TM1e376ledJ-Aqbjqv-U-6" style="edgeStyle=orthogonalEdgeStyle;rounded=0;orthogonalLoop=1;jettySize=auto;html=1;entryX=0.5;entryY=0;entryDx=0;entryDy=0;" edge="1" parent="1" source="TM1e376ledJ-Aqbjqv-U-1" target="TM1e376ledJ-Aqbjqv-U-4">
          <mxGeometry relative="1" as="geometry" />
        </mxCell>
        <mxCell id="TM1e376ledJ-Aqbjqv-U-1" value="EMPLEADO" style="whiteSpace=wrap;html=1;" vertex="1" parent="1">
          <mxGeometry x="210" y="90" width="120" height="60" as="geometry" />
        </mxCell>
        <mxCell id="TM1e376ledJ-Aqbjqv-U-24" value="" style="edgeStyle=orthogonalEdgeStyle;rounded=0;orthogonalLoop=1;jettySize=auto;html=1;" edge="1" parent="1" source="TM1e376ledJ-Aqbjqv-U-2" target="TM1e376ledJ-Aqbjqv-U-23">
          <mxGeometry relative="1" as="geometry" />
        </mxCell>
        <mxCell id="TM1e376ledJ-Aqbjqv-U-2" value="ADMINISTRATIVO" style="whiteSpace=wrap;html=1;" vertex="1" parent="1">
          <mxGeometry x="90" y="210" width="120" height="60" as="geometry" />
        </mxCell>
        <mxCell id="TM1e376ledJ-Aqbjqv-U-27" value="" style="edgeStyle=orthogonalEdgeStyle;rounded=0;orthogonalLoop=1;jettySize=auto;html=1;" edge="1" parent="1" source="TM1e376ledJ-Aqbjqv-U-4" target="TM1e376ledJ-Aqbjqv-U-26">
          <mxGeometry relative="1" as="geometry" />
        </mxCell>
        <mxCell id="TM1e376ledJ-Aqbjqv-U-35" value="" style="edgeStyle=orthogonalEdgeStyle;rounded=0;orthogonalLoop=1;jettySize=auto;html=1;" edge="1" parent="1" source="TM1e376ledJ-Aqbjqv-U-4" target="TM1e376ledJ-Aqbjqv-U-34">
          <mxGeometry relative="1" as="geometry" />
        </mxCell>
        <mxCell id="TM1e376ledJ-Aqbjqv-U-4" value="PENITENCIARIO" style="whiteSpace=wrap;html=1;" vertex="1" parent="1">
          <mxGeometry x="330" y="210" width="120" height="60" as="geometry" />
        </mxCell>
        <mxCell id="TM1e376ledJ-Aqbjqv-U-7" value="(T,E)" style="text;html=1;align=center;verticalAlign=middle;resizable=0;points=[];autosize=1;strokeColor=none;fillColor=none;" vertex="1" parent="1">
          <mxGeometry x="275" y="150" width="50" height="30" as="geometry" />
        </mxCell>
        <mxCell id="TM1e376ledJ-Aqbjqv-U-22" style="edgeStyle=orthogonalEdgeStyle;rounded=0;orthogonalLoop=1;jettySize=auto;html=1;entryX=0.5;entryY=1;entryDx=0;entryDy=0;" edge="1" parent="1" source="TM1e376ledJ-Aqbjqv-U-11" target="TM1e376ledJ-Aqbjqv-U-13">
          <mxGeometry relative="1" as="geometry">
            <Array as="points">
              <mxPoint x="245" y="560" />
              <mxPoint x="380" y="560" />
            </Array>
          </mxGeometry>
        </mxCell>
        <mxCell id="TM1e376ledJ-Aqbjqv-U-11" value="AREA" style="whiteSpace=wrap;html=1;" vertex="1" parent="1">
          <mxGeometry x="185" y="590" width="120" height="60" as="geometry" />
        </mxCell>
        <mxCell id="TM1e376ledJ-Aqbjqv-U-12" value="ADMINISTRATIVA" style="whiteSpace=wrap;html=1;" vertex="1" parent="1">
          <mxGeometry x="70" y="470" width="120" height="60" as="geometry" />
        </mxCell>
        <mxCell id="TM1e376ledJ-Aqbjqv-U-31" value="" style="edgeStyle=orthogonalEdgeStyle;rounded=0;orthogonalLoop=1;jettySize=auto;html=1;" edge="1" parent="1" source="TM1e376ledJ-Aqbjqv-U-13" target="TM1e376ledJ-Aqbjqv-U-30">
          <mxGeometry relative="1" as="geometry" />
        </mxCell>
        <mxCell id="TM1e376ledJ-Aqbjqv-U-43" style="edgeStyle=orthogonalEdgeStyle;rounded=0;orthogonalLoop=1;jettySize=auto;html=1;entryX=0.5;entryY=1;entryDx=0;entryDy=0;" edge="1" parent="1" source="TM1e376ledJ-Aqbjqv-U-13" target="TM1e376ledJ-Aqbjqv-U-42">
          <mxGeometry relative="1" as="geometry">
            <Array as="points">
              <mxPoint x="410" y="425" />
              <mxPoint x="470" y="425" />
            </Array>
          </mxGeometry>
        </mxCell>
        <mxCell id="TM1e376ledJ-Aqbjqv-U-13" value="PABELLON" style="whiteSpace=wrap;html=1;" vertex="1" parent="1">
          <mxGeometry x="320" y="470" width="120" height="60" as="geometry" />
        </mxCell>
        <mxCell id="TM1e376ledJ-Aqbjqv-U-14" value="(T,E)" style="text;html=1;align=center;verticalAlign=middle;resizable=0;points=[];autosize=1;strokeColor=none;fillColor=none;" vertex="1" parent="1">
          <mxGeometry x="245" y="560" width="50" height="30" as="geometry" />
        </mxCell>
        <mxCell id="TM1e376ledJ-Aqbjqv-U-16" style="edgeStyle=orthogonalEdgeStyle;rounded=0;orthogonalLoop=1;jettySize=auto;html=1;entryX=0.4;entryY=1.008;entryDx=0;entryDy=0;entryPerimeter=0;" edge="1" parent="1" source="TM1e376ledJ-Aqbjqv-U-11" target="TM1e376ledJ-Aqbjqv-U-12">
          <mxGeometry relative="1" as="geometry">
            <Array as="points">
              <mxPoint x="245" y="560" />
              <mxPoint x="118" y="560" />
            </Array>
          </mxGeometry>
        </mxCell>
        <mxCell id="TM1e376ledJ-Aqbjqv-U-25" style="edgeStyle=orthogonalEdgeStyle;rounded=0;orthogonalLoop=1;jettySize=auto;html=1;entryX=0.5;entryY=0;entryDx=0;entryDy=0;" edge="1" parent="1" source="TM1e376ledJ-Aqbjqv-U-23" target="TM1e376ledJ-Aqbjqv-U-12">
          <mxGeometry relative="1" as="geometry" />
        </mxCell>
        <mxCell id="TM1e376ledJ-Aqbjqv-U-23" value="trabaja 1" style="rhombus;whiteSpace=wrap;html=1;" vertex="1" parent="1">
          <mxGeometry x="170" y="330" width="60" height="60" as="geometry" />
        </mxCell>
        <mxCell id="TM1e376ledJ-Aqbjqv-U-28" value="" style="edgeStyle=orthogonalEdgeStyle;rounded=0;orthogonalLoop=1;jettySize=auto;html=1;" edge="1" parent="1" source="TM1e376ledJ-Aqbjqv-U-26" target="TM1e376ledJ-Aqbjqv-U-13">
          <mxGeometry relative="1" as="geometry" />
        </mxCell>
        <mxCell id="TM1e376ledJ-Aqbjqv-U-26" value="trabaja 2" style="rhombus;whiteSpace=wrap;html=1;" vertex="1" parent="1">
          <mxGeometry x="314" y="330" width="60" height="60" as="geometry" />
        </mxCell>
        <mxCell id="TM1e376ledJ-Aqbjqv-U-29" value="INTERNO" style="whiteSpace=wrap;html=1;" vertex="1" parent="1">
          <mxGeometry x="570" y="545" width="120" height="60" as="geometry" />
        </mxCell>
        <mxCell id="TM1e376ledJ-Aqbjqv-U-32" value="" style="edgeStyle=orthogonalEdgeStyle;rounded=0;orthogonalLoop=1;jettySize=auto;html=1;" edge="1" parent="1" source="TM1e376ledJ-Aqbjqv-U-30" target="TM1e376ledJ-Aqbjqv-U-29">
          <mxGeometry relative="1" as="geometry" />
        </mxCell>
        <mxCell id="TM1e376ledJ-Aqbjqv-U-30" value="ALOJA" style="rhombus;whiteSpace=wrap;html=1;" vertex="1" parent="1">
          <mxGeometry x="450" y="545" width="60" height="60" as="geometry" />
        </mxCell>
        <mxCell id="TM1e376ledJ-Aqbjqv-U-39" value="" style="edgeStyle=orthogonalEdgeStyle;rounded=0;orthogonalLoop=1;jettySize=auto;html=1;" edge="1" parent="1" source="TM1e376ledJ-Aqbjqv-U-33" target="TM1e376ledJ-Aqbjqv-U-38">
          <mxGeometry relative="1" as="geometry" />
        </mxCell>
        <mxCell id="TM1e376ledJ-Aqbjqv-U-33" value="INCIDENTE" style="whiteSpace=wrap;html=1;" vertex="1" parent="1">
          <mxGeometry x="570" y="320" width="120" height="60" as="geometry" />
        </mxCell>
        <mxCell id="TM1e376ledJ-Aqbjqv-U-36" style="edgeStyle=orthogonalEdgeStyle;rounded=0;orthogonalLoop=1;jettySize=auto;html=1;entryX=0.5;entryY=0;entryDx=0;entryDy=0;" edge="1" parent="1" source="TM1e376ledJ-Aqbjqv-U-34" target="TM1e376ledJ-Aqbjqv-U-33">
          <mxGeometry relative="1" as="geometry">
            <Array as="points">
              <mxPoint x="630" y="240" />
            </Array>
          </mxGeometry>
        </mxCell>
        <mxCell id="TM1e376ledJ-Aqbjqv-U-34" value="&lt;font style=&quot;font-size: 11px;&quot;&gt;responsable&lt;/font&gt;" style="rhombus;whiteSpace=wrap;html=1;" vertex="1" parent="1">
          <mxGeometry x="535" y="210" width="65" height="60" as="geometry" />
        </mxCell>
        <mxCell id="TM1e376ledJ-Aqbjqv-U-40" value="" style="edgeStyle=orthogonalEdgeStyle;rounded=0;orthogonalLoop=1;jettySize=auto;html=1;" edge="1" parent="1" source="TM1e376ledJ-Aqbjqv-U-38" target="TM1e376ledJ-Aqbjqv-U-29">
          <mxGeometry relative="1" as="geometry" />
        </mxCell>
        <mxCell id="TM1e376ledJ-Aqbjqv-U-38" value="involucra" style="rhombus;whiteSpace=wrap;html=1;" vertex="1" parent="1">
          <mxGeometry x="600" y="430" width="60" height="60" as="geometry" />
        </mxCell>
        <mxCell id="TM1e376ledJ-Aqbjqv-U-45" style="edgeStyle=orthogonalEdgeStyle;rounded=0;orthogonalLoop=1;jettySize=auto;html=1;entryX=0;entryY=0.5;entryDx=0;entryDy=0;" edge="1" parent="1" source="TM1e376ledJ-Aqbjqv-U-42" target="TM1e376ledJ-Aqbjqv-U-33">
          <mxGeometry relative="1" as="geometry" />
        </mxCell>
        <mxCell id="TM1e376ledJ-Aqbjqv-U-42" value="ocurre" style="rhombus;whiteSpace=wrap;html=1;" vertex="1" parent="1">
          <mxGeometry x="440" y="320" width="60" height="60" as="geometry" />
        </mxCell>
        <mxCell id="TM1e376ledJ-Aqbjqv-U-46" value="Practica 2 - Ejercicio 8&lt;div&gt;Modelado Conceptual&lt;/div&gt;" style="text;html=1;align=center;verticalAlign=middle;resizable=0;points=[];autosize=1;strokeColor=none;fillColor=none;" vertex="1" parent="1">
          <mxGeometry x="10" y="13" width="140" height="40" as="geometry" />
        </mxCell>
      </root>
    </mxGraphModel>
  </diagram>
</mxfile>
